<mxfile host="app.diagrams.net" modified="2021-09-30T17:54:16.249Z" agent="5.0 (Macintosh; Intel Mac OS X 10_15_7) AppleWebKit/537.36 (KHTML, like Gecko) Chrome/92.0.4515.134 Safari/537.36" etag="eQdHEXTYvylxHgn3WWQ7" version="15.2.9" type="github">
  <diagram id="YdMIHvUInoAl8VdBywiu" name="Page-1">
    <mxGraphModel dx="1240" dy="976" grid="1" gridSize="10" guides="1" tooltips="1" connect="1" arrows="1" fold="1" page="1" pageScale="1" pageWidth="1600" pageHeight="900" math="0" shadow="0">
      <root>
        <mxCell id="0" />
        <mxCell id="1" parent="0" />
        <mxCell id="PraPNRLX0rEh6KeP2q02-1" style="edgeStyle=orthogonalEdgeStyle;rounded=0;orthogonalLoop=1;jettySize=auto;html=1;exitX=1;exitY=0.5;exitDx=0;exitDy=0;entryX=0;entryY=0.5;entryDx=0;entryDy=0;startArrow=none;startFill=0;endArrow=classic;endFill=1;" parent="1" source="PraPNRLX0rEh6KeP2q02-2" target="PraPNRLX0rEh6KeP2q02-10" edge="1">
          <mxGeometry relative="1" as="geometry" />
        </mxCell>
        <mxCell id="PraPNRLX0rEh6KeP2q02-2" value="normal_bam" style="whiteSpace=wrap;html=1;" parent="1" vertex="1">
          <mxGeometry x="200" y="440" width="120" height="30" as="geometry" />
        </mxCell>
        <mxCell id="PraPNRLX0rEh6KeP2q02-3" style="edgeStyle=orthogonalEdgeStyle;rounded=0;orthogonalLoop=1;jettySize=auto;html=1;exitX=1;exitY=0.5;exitDx=0;exitDy=0;entryX=0;entryY=0.5;entryDx=0;entryDy=0;startArrow=none;startFill=0;endArrow=classic;endFill=1;" parent="1" source="PraPNRLX0rEh6KeP2q02-4" target="PraPNRLX0rEh6KeP2q02-11" edge="1">
          <mxGeometry relative="1" as="geometry" />
        </mxCell>
        <mxCell id="PraPNRLX0rEh6KeP2q02-4" value="tumor_bam" style="whiteSpace=wrap;html=1;" parent="1" vertex="1">
          <mxGeometry x="200" y="480" width="120" height="30" as="geometry" />
        </mxCell>
        <mxCell id="PraPNRLX0rEh6KeP2q02-5" value="strelka2" style="swimlane;fontStyle=1;childLayout=stackLayout;horizontal=1;startSize=26;fillColor=none;horizontalStack=0;resizeParent=1;resizeParentMax=0;resizeLast=0;collapsible=1;marginBottom=0;direction=east;" parent="1" vertex="1">
          <mxGeometry x="440" y="149" width="320" height="676" as="geometry">
            <mxRectangle x="400" y="524" width="90" height="26" as="alternateBounds" />
          </mxGeometry>
        </mxCell>
        <mxCell id="PraPNRLX0rEh6KeP2q02-6" value="configureStrelkaSomaticWorkflow.py" style="swimlane;fontStyle=0;childLayout=stackLayout;horizontal=1;startSize=26;fillColor=none;horizontalStack=0;resizeParent=1;resizeParentMax=0;resizeLast=0;collapsible=1;marginBottom=0;" parent="PraPNRLX0rEh6KeP2q02-5" vertex="1">
          <mxGeometry y="26" width="320" height="650" as="geometry" />
        </mxCell>
        <mxCell id="PraPNRLX0rEh6KeP2q02-7" value="--exome" style="text;strokeColor=none;fillColor=none;align=left;verticalAlign=top;spacingLeft=4;spacingRight=4;overflow=hidden;rotatable=0;points=[[0,0.5],[1,0.5]];portConstraint=eastwest;" parent="PraPNRLX0rEh6KeP2q02-6" vertex="1">
          <mxGeometry y="26" width="320" height="26" as="geometry" />
        </mxCell>
        <mxCell id="PraPNRLX0rEh6KeP2q02-8" value="--config &quot;{{ temp_dir }}/config.ini&quot;" style="text;strokeColor=none;fillColor=none;align=left;verticalAlign=top;spacingLeft=4;spacingRight=4;overflow=hidden;rotatable=0;points=[[0,0.5],[1,0.5]];portConstraint=eastwest;" parent="PraPNRLX0rEh6KeP2q02-6" vertex="1">
          <mxGeometry y="52" width="320" height="26" as="geometry" />
        </mxCell>
        <mxCell id="PraPNRLX0rEh6KeP2q02-9" value="--callRegions &quot;{{ temp_dir }}/callRegions.bed.gz&quot;" style="text;strokeColor=none;fillColor=none;align=left;verticalAlign=top;spacingLeft=4;spacingRight=4;overflow=hidden;rotatable=0;points=[[0,0.5],[1,0.5]];portConstraint=eastwest;" parent="PraPNRLX0rEh6KeP2q02-6" vertex="1">
          <mxGeometry y="78" width="320" height="26" as="geometry" />
        </mxCell>
        <mxCell id="PraPNRLX0rEh6KeP2q02-10" value="--normalBam &quot;{{ normal_bam }}&quot;" style="text;strokeColor=none;fillColor=none;align=left;verticalAlign=top;spacingLeft=4;spacingRight=4;overflow=hidden;rotatable=0;points=[[0,0.5],[1,0.5]];portConstraint=eastwest;" parent="PraPNRLX0rEh6KeP2q02-6" vertex="1">
          <mxGeometry y="104" width="320" height="26" as="geometry" />
        </mxCell>
        <mxCell id="PraPNRLX0rEh6KeP2q02-11" value="--tumorBam &quot;{{ tumor_bam }}&quot;" style="text;strokeColor=none;fillColor=none;align=left;verticalAlign=top;spacingLeft=4;spacingRight=4;overflow=hidden;rotatable=0;points=[[0,0.5],[1,0.5]];portConstraint=eastwest;" parent="PraPNRLX0rEh6KeP2q02-6" vertex="1">
          <mxGeometry y="130" width="320" height="26" as="geometry" />
        </mxCell>
        <mxCell id="PraPNRLX0rEh6KeP2q02-12" value="--indelCandidates &quot;{{ indel_candidates }}&quot;" style="text;strokeColor=none;fillColor=none;align=left;verticalAlign=top;spacingLeft=4;spacingRight=4;overflow=hidden;rotatable=0;points=[[0,0.5],[1,0.5]];portConstraint=eastwest;" parent="PraPNRLX0rEh6KeP2q02-6" vertex="1">
          <mxGeometry y="156" width="320" height="26" as="geometry" />
        </mxCell>
        <mxCell id="PraPNRLX0rEh6KeP2q02-13" value="--ref &quot;{{ constants.phoenix.reference_fasta }}&quot;" style="text;strokeColor=none;fillColor=none;align=left;verticalAlign=top;spacingLeft=4;spacingRight=4;overflow=hidden;rotatable=0;points=[[0,0.5],[1,0.5]];portConstraint=eastwest;" parent="PraPNRLX0rEh6KeP2q02-6" vertex="1">
          <mxGeometry y="182" width="320" height="26" as="geometry" />
        </mxCell>
        <mxCell id="PraPNRLX0rEh6KeP2q02-14" value="--runDir &quot;{{ temp_dir }}&quot;" style="text;strokeColor=none;fillColor=none;align=left;verticalAlign=top;spacingLeft=4;spacingRight=4;overflow=hidden;rotatable=0;points=[[0,0.5],[1,0.5]];portConstraint=eastwest;" parent="PraPNRLX0rEh6KeP2q02-6" vertex="1">
          <mxGeometry y="208" width="320" height="26" as="geometry" />
        </mxCell>
        <mxCell id="PraPNRLX0rEh6KeP2q02-15" value="samtools view" style="swimlane;fontStyle=0;childLayout=stackLayout;horizontal=1;startSize=26;fillColor=none;horizontalStack=0;resizeParent=1;resizeParentMax=0;resizeLast=0;collapsible=1;marginBottom=0;" parent="PraPNRLX0rEh6KeP2q02-6" vertex="1">
          <mxGeometry y="234" width="320" height="156" as="geometry">
            <mxRectangle y="234" width="210" height="26" as="alternateBounds" />
          </mxGeometry>
        </mxCell>
        <mxCell id="PraPNRLX0rEh6KeP2q02-16" value="-C" style="text;strokeColor=none;fillColor=none;align=left;verticalAlign=top;spacingLeft=4;spacingRight=4;overflow=hidden;rotatable=0;points=[[0,0.5],[1,0.5]];portConstraint=eastwest;" parent="PraPNRLX0rEh6KeP2q02-15" vertex="1">
          <mxGeometry y="26" width="320" height="26" as="geometry" />
        </mxCell>
        <mxCell id="PraPNRLX0rEh6KeP2q02-17" value="-@ 16" style="text;strokeColor=none;fillColor=none;align=left;verticalAlign=top;spacingLeft=4;spacingRight=4;overflow=hidden;rotatable=0;points=[[0,0.5],[1,0.5]];portConstraint=eastwest;" parent="PraPNRLX0rEh6KeP2q02-15" vertex="1">
          <mxGeometry y="52" width="320" height="26" as="geometry" />
        </mxCell>
        <mxCell id="PraPNRLX0rEh6KeP2q02-18" value="--reference {{ constants.phoenix.reference_fasta }}" style="text;strokeColor=none;fillColor=none;align=left;verticalAlign=top;spacingLeft=4;spacingRight=4;overflow=hidden;rotatable=0;points=[[0,0.5],[1,0.5]];portConstraint=eastwest;" parent="PraPNRLX0rEh6KeP2q02-15" vertex="1">
          <mxGeometry y="78" width="320" height="26" as="geometry" />
        </mxCell>
        <mxCell id="PraPNRLX0rEh6KeP2q02-19" value="-o {{ results_dir }}/evidence/{{ pair.normal.name }}.{{ aligner }}.strelka2.realigned.cram" style="text;strokeColor=none;fillColor=none;align=left;verticalAlign=top;spacingLeft=4;spacingRight=4;overflow=hidden;rotatable=0;points=[[0,0.5],[1,0.5]];portConstraint=eastwest;" parent="PraPNRLX0rEh6KeP2q02-15" vertex="1">
          <mxGeometry y="104" width="320" height="26" as="geometry" />
        </mxCell>
        <mxCell id="PraPNRLX0rEh6KeP2q02-20" value="{{ temp_dir }}/results/realigned/realigned.normal.bam" style="text;strokeColor=none;fillColor=none;align=left;verticalAlign=top;spacingLeft=4;spacingRight=4;overflow=hidden;rotatable=0;points=[[0,0.5],[1,0.5]];portConstraint=eastwest;" parent="PraPNRLX0rEh6KeP2q02-15" vertex="1">
          <mxGeometry y="130" width="320" height="26" as="geometry" />
        </mxCell>
        <mxCell id="PraPNRLX0rEh6KeP2q02-21" value="samtools index" style="swimlane;fontStyle=0;childLayout=stackLayout;horizontal=1;startSize=26;fillColor=none;horizontalStack=0;resizeParent=1;resizeParentMax=0;resizeLast=0;collapsible=1;marginBottom=0;" parent="PraPNRLX0rEh6KeP2q02-6" vertex="1">
          <mxGeometry y="390" width="320" height="52" as="geometry">
            <mxRectangle y="390" width="210" height="26" as="alternateBounds" />
          </mxGeometry>
        </mxCell>
        <mxCell id="PraPNRLX0rEh6KeP2q02-22" value="{{ results_dir }}/evidence/{{ pair.normal.name }}.{{ aligner }}.strelka2.realigned.cram" style="text;strokeColor=none;fillColor=none;align=left;verticalAlign=top;spacingLeft=4;spacingRight=4;overflow=hidden;rotatable=0;points=[[0,0.5],[1,0.5]];portConstraint=eastwest;" parent="PraPNRLX0rEh6KeP2q02-21" vertex="1">
          <mxGeometry y="26" width="320" height="26" as="geometry" />
        </mxCell>
        <mxCell id="PraPNRLX0rEh6KeP2q02-23" value="samtools view" style="swimlane;fontStyle=0;childLayout=stackLayout;horizontal=1;startSize=26;fillColor=none;horizontalStack=0;resizeParent=1;resizeParentMax=0;resizeLast=0;collapsible=1;marginBottom=0;" parent="PraPNRLX0rEh6KeP2q02-6" vertex="1">
          <mxGeometry y="442" width="320" height="208" as="geometry">
            <mxRectangle y="442" width="210" height="26" as="alternateBounds" />
          </mxGeometry>
        </mxCell>
        <mxCell id="PraPNRLX0rEh6KeP2q02-24" value="-C" style="text;strokeColor=none;fillColor=none;align=left;verticalAlign=top;spacingLeft=4;spacingRight=4;overflow=hidden;rotatable=0;points=[[0,0.5],[1,0.5]];portConstraint=eastwest;" parent="PraPNRLX0rEh6KeP2q02-23" vertex="1">
          <mxGeometry y="26" width="320" height="26" as="geometry" />
        </mxCell>
        <mxCell id="PraPNRLX0rEh6KeP2q02-25" value="-@ 16" style="text;strokeColor=none;fillColor=none;align=left;verticalAlign=top;spacingLeft=4;spacingRight=4;overflow=hidden;rotatable=0;points=[[0,0.5],[1,0.5]];portConstraint=eastwest;" parent="PraPNRLX0rEh6KeP2q02-23" vertex="1">
          <mxGeometry y="52" width="320" height="26" as="geometry" />
        </mxCell>
        <mxCell id="PraPNRLX0rEh6KeP2q02-26" value="--reference {{ constants.phoenix.reference_fasta }}" style="text;strokeColor=none;fillColor=none;align=left;verticalAlign=top;spacingLeft=4;spacingRight=4;overflow=hidden;rotatable=0;points=[[0,0.5],[1,0.5]];portConstraint=eastwest;" parent="PraPNRLX0rEh6KeP2q02-23" vertex="1">
          <mxGeometry y="78" width="320" height="26" as="geometry" />
        </mxCell>
        <mxCell id="PraPNRLX0rEh6KeP2q02-27" value="-o {{ results_dir }}/evidence/{{ pair.tumor.name }}.{{ aligner }}.strelka2.realigned.cram" style="text;strokeColor=none;fillColor=none;align=left;verticalAlign=top;spacingLeft=4;spacingRight=4;overflow=hidden;rotatable=0;points=[[0,0.5],[1,0.5]];portConstraint=eastwest;" parent="PraPNRLX0rEh6KeP2q02-23" vertex="1">
          <mxGeometry y="104" width="320" height="26" as="geometry" />
        </mxCell>
        <mxCell id="PraPNRLX0rEh6KeP2q02-28" value="{{ temp_dir }}/results/realigned/realigned.tumor.bam" style="text;strokeColor=none;fillColor=none;align=left;verticalAlign=top;spacingLeft=4;spacingRight=4;overflow=hidden;rotatable=0;points=[[0,0.5],[1,0.5]];portConstraint=eastwest;" parent="PraPNRLX0rEh6KeP2q02-23" vertex="1">
          <mxGeometry y="130" width="320" height="26" as="geometry" />
        </mxCell>
        <mxCell id="PraPNRLX0rEh6KeP2q02-29" value="samtools index" style="swimlane;fontStyle=0;childLayout=stackLayout;horizontal=1;startSize=26;fillColor=none;horizontalStack=0;resizeParent=1;resizeParentMax=0;resizeLast=0;collapsible=1;marginBottom=0;" parent="PraPNRLX0rEh6KeP2q02-23" vertex="1">
          <mxGeometry y="156" width="320" height="52" as="geometry" />
        </mxCell>
        <mxCell id="PraPNRLX0rEh6KeP2q02-30" value="{{ temp_dir }}/results/realigned/realigned.tumor.bam" style="text;strokeColor=none;fillColor=none;align=left;verticalAlign=top;spacingLeft=4;spacingRight=4;overflow=hidden;rotatable=0;points=[[0,0.5],[1,0.5]];portConstraint=eastwest;" parent="PraPNRLX0rEh6KeP2q02-29" vertex="1">
          <mxGeometry y="26" width="320" height="26" as="geometry" />
        </mxCell>
        <mxCell id="PraPNRLX0rEh6KeP2q02-31" value="strelka2_filter_variants" style="swimlane;fontStyle=1;childLayout=stackLayout;horizontal=1;startSize=26;fillColor=none;horizontalStack=0;resizeParent=1;resizeParentMax=0;resizeLast=0;collapsible=1;marginBottom=0;direction=east;" parent="1" vertex="1">
          <mxGeometry x="920" y="180" width="320" height="572" as="geometry">
            <mxRectangle x="620" y="524" width="90" height="26" as="alternateBounds" />
          </mxGeometry>
        </mxCell>
        <mxCell id="PraPNRLX0rEh6KeP2q02-32" value="bcftools concat" style="swimlane;fontStyle=0;childLayout=stackLayout;horizontal=1;startSize=26;fillColor=none;horizontalStack=0;resizeParent=1;resizeParentMax=0;resizeLast=0;collapsible=1;marginBottom=0;" parent="PraPNRLX0rEh6KeP2q02-31" vertex="1">
          <mxGeometry y="26" width="320" height="182" as="geometry">
            <mxRectangle y="26" width="315" height="26" as="alternateBounds" />
          </mxGeometry>
        </mxCell>
        <mxCell id="PraPNRLX0rEh6KeP2q02-33" value="--allow-overlaps" style="text;strokeColor=none;fillColor=none;align=left;verticalAlign=top;spacingLeft=4;spacingRight=4;overflow=hidden;rotatable=0;points=[[0,0.5],[1,0.5]];portConstraint=eastwest;" parent="PraPNRLX0rEh6KeP2q02-32" vertex="1">
          <mxGeometry y="26" width="320" height="26" as="geometry" />
        </mxCell>
        <mxCell id="PraPNRLX0rEh6KeP2q02-34" value="--threads 1" style="text;strokeColor=none;fillColor=none;align=left;verticalAlign=top;spacingLeft=4;spacingRight=4;overflow=hidden;rotatable=0;points=[[0,0.5],[1,0.5]];portConstraint=eastwest;" parent="PraPNRLX0rEh6KeP2q02-32" vertex="1">
          <mxGeometry y="52" width="320" height="26" as="geometry" />
        </mxCell>
        <mxCell id="PraPNRLX0rEh6KeP2q02-35" value="--output-type z" style="text;strokeColor=none;fillColor=none;align=left;verticalAlign=top;spacingLeft=4;spacingRight=4;overflow=hidden;rotatable=0;points=[[0,0.5],[1,0.5]];portConstraint=eastwest;" parent="PraPNRLX0rEh6KeP2q02-32" vertex="1">
          <mxGeometry y="78" width="320" height="26" as="geometry" />
        </mxCell>
        <mxCell id="PraPNRLX0rEh6KeP2q02-36" value="--output &quot;{{ all_vcf }}&quot;" style="text;strokeColor=none;fillColor=none;align=left;verticalAlign=top;spacingLeft=4;spacingRight=4;overflow=hidden;rotatable=0;points=[[0,0.5],[1,0.5]];portConstraint=eastwest;" parent="PraPNRLX0rEh6KeP2q02-32" vertex="1">
          <mxGeometry y="104" width="320" height="26" as="geometry" />
        </mxCell>
        <mxCell id="PraPNRLX0rEh6KeP2q02-37" value="&quot;{{ temp_dir }}/results/variants/somatic.indels.vcf.gz&quot;" style="text;strokeColor=none;fillColor=none;align=left;verticalAlign=top;spacingLeft=4;spacingRight=4;overflow=hidden;rotatable=0;points=[[0,0.5],[1,0.5]];portConstraint=eastwest;" parent="PraPNRLX0rEh6KeP2q02-32" vertex="1">
          <mxGeometry y="130" width="320" height="26" as="geometry" />
        </mxCell>
        <mxCell id="PraPNRLX0rEh6KeP2q02-38" value="&quot;{{ temp_dir }}/results/variants/somatic.snvs.vcf.gz&quot;" style="text;strokeColor=none;fillColor=none;align=left;verticalAlign=top;spacingLeft=4;spacingRight=4;overflow=hidden;rotatable=0;points=[[0,0.5],[1,0.5]];portConstraint=eastwest;" parent="PraPNRLX0rEh6KeP2q02-32" vertex="1">
          <mxGeometry y="156" width="320" height="26" as="geometry" />
        </mxCell>
        <mxCell id="PraPNRLX0rEh6KeP2q02-39" value="bcftools index" style="swimlane;fontStyle=0;childLayout=stackLayout;horizontal=1;startSize=26;fillColor=none;horizontalStack=0;resizeParent=1;resizeParentMax=0;resizeLast=0;collapsible=1;marginBottom=0;" parent="PraPNRLX0rEh6KeP2q02-31" vertex="1">
          <mxGeometry y="208" width="320" height="104" as="geometry">
            <mxRectangle y="52" width="315" height="26" as="alternateBounds" />
          </mxGeometry>
        </mxCell>
        <mxCell id="PraPNRLX0rEh6KeP2q02-40" value="--tbi" style="text;strokeColor=none;fillColor=none;align=left;verticalAlign=top;spacingLeft=4;spacingRight=4;overflow=hidden;rotatable=0;points=[[0,0.5],[1,0.5]];portConstraint=eastwest;" parent="PraPNRLX0rEh6KeP2q02-39" vertex="1">
          <mxGeometry y="26" width="320" height="26" as="geometry" />
        </mxCell>
        <mxCell id="PraPNRLX0rEh6KeP2q02-41" value="--force" style="text;strokeColor=none;fillColor=none;align=left;verticalAlign=top;spacingLeft=4;spacingRight=4;overflow=hidden;rotatable=0;points=[[0,0.5],[1,0.5]];portConstraint=eastwest;" parent="PraPNRLX0rEh6KeP2q02-39" vertex="1">
          <mxGeometry y="52" width="320" height="26" as="geometry" />
        </mxCell>
        <mxCell id="PraPNRLX0rEh6KeP2q02-42" value="&quot;{{ all_vcf }}&quot;" style="text;strokeColor=none;fillColor=none;align=left;verticalAlign=top;spacingLeft=4;spacingRight=4;overflow=hidden;rotatable=0;points=[[0,0.5],[1,0.5]];portConstraint=eastwest;" parent="PraPNRLX0rEh6KeP2q02-39" vertex="1">
          <mxGeometry y="78" width="320" height="26" as="geometry" />
        </mxCell>
        <mxCell id="PraPNRLX0rEh6KeP2q02-43" value="bcftools filter" style="swimlane;fontStyle=0;childLayout=stackLayout;horizontal=1;startSize=26;fillColor=none;horizontalStack=0;resizeParent=1;resizeParentMax=0;resizeLast=0;collapsible=1;marginBottom=0;" parent="PraPNRLX0rEh6KeP2q02-31" vertex="1">
          <mxGeometry y="312" width="320" height="260" as="geometry">
            <mxRectangle y="78" width="315" height="26" as="alternateBounds" />
          </mxGeometry>
        </mxCell>
        <mxCell id="PraPNRLX0rEh6KeP2q02-44" value="--output-type z" style="text;strokeColor=none;fillColor=none;align=left;verticalAlign=top;spacingLeft=4;spacingRight=4;overflow=hidden;rotatable=0;points=[[0,0.5],[1,0.5]];portConstraint=eastwest;" parent="PraPNRLX0rEh6KeP2q02-43" vertex="1">
          <mxGeometry y="26" width="320" height="26" as="geometry" />
        </mxCell>
        <mxCell id="PraPNRLX0rEh6KeP2q02-45" value="--include &#39;FILTER == &quot;PASS&quot;&#39;" style="text;strokeColor=none;fillColor=none;align=left;verticalAlign=top;spacingLeft=4;spacingRight=4;overflow=hidden;rotatable=0;points=[[0,0.5],[1,0.5]];portConstraint=eastwest;" parent="PraPNRLX0rEh6KeP2q02-43" vertex="1">
          <mxGeometry y="52" width="320" height="26" as="geometry" />
        </mxCell>
        <mxCell id="PraPNRLX0rEh6KeP2q02-46" value="--targets-file &quot;{{ pair.tumor.capture_kit.extended_bed }}&quot;" style="text;fillColor=#f5f5f5;align=left;verticalAlign=top;spacingLeft=4;spacingRight=4;overflow=hidden;rotatable=0;points=[[0,0.5],[1,0.5]];portConstraint=eastwest;fontColor=#333333;strokeColor=#666666;" parent="PraPNRLX0rEh6KeP2q02-43" vertex="1">
          <mxGeometry y="78" width="320" height="26" as="geometry" />
        </mxCell>
        <mxCell id="PraPNRLX0rEh6KeP2q02-47" value="&quot;{{ all_vcf }}&quot;" style="text;strokeColor=none;fillColor=none;align=left;verticalAlign=top;spacingLeft=4;spacingRight=4;overflow=hidden;rotatable=0;points=[[0,0.5],[1,0.5]];portConstraint=eastwest;" parent="PraPNRLX0rEh6KeP2q02-43" vertex="1">
          <mxGeometry y="104" width="320" height="26" as="geometry" />
        </mxCell>
        <mxCell id="PraPNRLX0rEh6KeP2q02-48" value="&gt; &quot;{{ pass_vcf }}&quot;" style="text;strokeColor=none;fillColor=none;align=left;verticalAlign=top;spacingLeft=4;spacingRight=4;overflow=hidden;rotatable=0;points=[[0,0.5],[1,0.5]];portConstraint=eastwest;" parent="PraPNRLX0rEh6KeP2q02-43" vertex="1">
          <mxGeometry y="130" width="320" height="26" as="geometry" />
        </mxCell>
        <mxCell id="PraPNRLX0rEh6KeP2q02-49" value="bcftools index" style="swimlane;fontStyle=0;childLayout=stackLayout;horizontal=1;startSize=26;fillColor=none;horizontalStack=0;resizeParent=1;resizeParentMax=0;resizeLast=0;collapsible=1;marginBottom=0;" parent="PraPNRLX0rEh6KeP2q02-43" vertex="1">
          <mxGeometry y="156" width="320" height="104" as="geometry" />
        </mxCell>
        <mxCell id="PraPNRLX0rEh6KeP2q02-50" value="--tbi" style="text;strokeColor=none;fillColor=none;align=left;verticalAlign=top;spacingLeft=4;spacingRight=4;overflow=hidden;rotatable=0;points=[[0,0.5],[1,0.5]];portConstraint=eastwest;" parent="PraPNRLX0rEh6KeP2q02-49" vertex="1">
          <mxGeometry y="26" width="320" height="26" as="geometry" />
        </mxCell>
        <mxCell id="PraPNRLX0rEh6KeP2q02-51" value="--force" style="text;strokeColor=none;fillColor=none;align=left;verticalAlign=top;spacingLeft=4;spacingRight=4;overflow=hidden;rotatable=0;points=[[0,0.5],[1,0.5]];portConstraint=eastwest;" parent="PraPNRLX0rEh6KeP2q02-49" vertex="1">
          <mxGeometry y="52" width="320" height="26" as="geometry" />
        </mxCell>
        <mxCell id="PraPNRLX0rEh6KeP2q02-52" value="&quot;{{ pass_vcf }}&quot;" style="text;strokeColor=none;fillColor=none;align=left;verticalAlign=top;spacingLeft=4;spacingRight=4;overflow=hidden;rotatable=0;points=[[0,0.5],[1,0.5]];portConstraint=eastwest;" parent="PraPNRLX0rEh6KeP2q02-49" vertex="1">
          <mxGeometry y="78" width="320" height="26" as="geometry" />
        </mxCell>
        <mxCell id="PraPNRLX0rEh6KeP2q02-53" style="edgeStyle=orthogonalEdgeStyle;rounded=0;orthogonalLoop=1;jettySize=auto;html=1;exitX=1;exitY=0.5;exitDx=0;exitDy=0;entryX=1;entryY=0.5;entryDx=0;entryDy=0;startArrow=none;startFill=0;endArrow=classic;endFill=1;" parent="PraPNRLX0rEh6KeP2q02-31" source="PraPNRLX0rEh6KeP2q02-36" target="PraPNRLX0rEh6KeP2q02-42" edge="1">
          <mxGeometry relative="1" as="geometry">
            <Array as="points">
              <mxPoint x="340" y="143" />
              <mxPoint x="340" y="299" />
            </Array>
          </mxGeometry>
        </mxCell>
        <mxCell id="PraPNRLX0rEh6KeP2q02-54" style="edgeStyle=orthogonalEdgeStyle;rounded=0;orthogonalLoop=1;jettySize=auto;html=1;exitX=1;exitY=0.5;exitDx=0;exitDy=0;entryX=1;entryY=0.5;entryDx=0;entryDy=0;startArrow=none;startFill=0;endArrow=classic;endFill=1;" parent="PraPNRLX0rEh6KeP2q02-31" source="PraPNRLX0rEh6KeP2q02-36" target="PraPNRLX0rEh6KeP2q02-47" edge="1">
          <mxGeometry relative="1" as="geometry">
            <Array as="points">
              <mxPoint x="360" y="143" />
              <mxPoint x="360" y="429" />
            </Array>
          </mxGeometry>
        </mxCell>
        <mxCell id="PraPNRLX0rEh6KeP2q02-55" style="edgeStyle=orthogonalEdgeStyle;rounded=0;orthogonalLoop=1;jettySize=auto;html=1;exitX=1;exitY=0.5;exitDx=0;exitDy=0;entryX=0;entryY=0.5;entryDx=0;entryDy=0;startArrow=none;startFill=0;endArrow=classic;endFill=1;" parent="1" source="PraPNRLX0rEh6KeP2q02-56" target="PraPNRLX0rEh6KeP2q02-12" edge="1">
          <mxGeometry relative="1" as="geometry" />
        </mxCell>
        <mxCell id="PraPNRLX0rEh6KeP2q02-56" value="indel_candidates" style="whiteSpace=wrap;html=1;" parent="1" vertex="1">
          <mxGeometry x="200" y="520" width="120" height="30" as="geometry" />
        </mxCell>
        <mxCell id="PraPNRLX0rEh6KeP2q02-57" style="edgeStyle=orthogonalEdgeStyle;rounded=0;orthogonalLoop=1;jettySize=auto;html=1;exitX=1;exitY=0.5;exitDx=0;exitDy=0;entryX=0;entryY=0.5;entryDx=0;entryDy=0;startArrow=none;startFill=0;endArrow=ERmany;endFill=0;" parent="1" source="PraPNRLX0rEh6KeP2q02-10" target="PraPNRLX0rEh6KeP2q02-37" edge="1">
          <mxGeometry relative="1" as="geometry" />
        </mxCell>
        <mxCell id="PraPNRLX0rEh6KeP2q02-58" style="edgeStyle=orthogonalEdgeStyle;rounded=0;orthogonalLoop=1;jettySize=auto;html=1;exitX=1;exitY=0.5;exitDx=0;exitDy=0;entryX=0;entryY=0.5;entryDx=0;entryDy=0;startArrow=none;startFill=0;endArrow=ERmany;endFill=0;" parent="1" source="PraPNRLX0rEh6KeP2q02-10" target="PraPNRLX0rEh6KeP2q02-38" edge="1">
          <mxGeometry relative="1" as="geometry" />
        </mxCell>
        <mxCell id="PraPNRLX0rEh6KeP2q02-59" style="edgeStyle=orthogonalEdgeStyle;rounded=0;orthogonalLoop=1;jettySize=auto;html=1;exitX=1;exitY=0.5;exitDx=0;exitDy=0;entryX=0;entryY=0.5;entryDx=0;entryDy=0;startArrow=none;startFill=0;endArrow=classic;endFill=1;" parent="1" source="PraPNRLX0rEh6KeP2q02-60" target="PraPNRLX0rEh6KeP2q02-46" edge="1">
          <mxGeometry relative="1" as="geometry" />
        </mxCell>
        <mxCell id="PraPNRLX0rEh6KeP2q02-60" value="if exome" style="text;html=1;strokeColor=#666666;fillColor=#f5f5f5;align=center;verticalAlign=middle;whiteSpace=wrap;rounded=0;fontColor=#333333;" parent="1" vertex="1">
          <mxGeometry x="800" y="573" width="80" height="20" as="geometry" />
        </mxCell>
      </root>
    </mxGraphModel>
  </diagram>
</mxfile>
